<svg viewBox="0 0 24 24" fill="currentColor">
  <path
     d="M 8.3066406 0.5 A 1.0001 1.0001 0 0 0 7.6269531 2.234375 L 11.113281 5.4589844 C 11.141746 5.7367089 11.196245 6.0067632 11.273438 6.2675781 C 10.803594 6.5518965 10.362578 6.8938567 9.9902344 7.2929688 L 4.0898438 4.1191406 A 1.0001 1.0001 0 0 0 3.2324219 4.0761719 A 1.0001 1.0001 0 0 0 2.6582031 4.7109375 L 0.54296875 11.710938 A 1.0001 1.0001 0 0 0 1.9140625 12.910156 L 4.765625 11.613281 L 5.203125 13.869141 A 1.0001 1.0001 0 0 0 6.6054688 14.585938 L 9.5292969 13.228516 C 9.6514494 13.418033 9.785582 13.600113 9.9335938 13.771484 C 10.946827 15.071632 12.42222 15.894064 13.521484 17.103516 C 14.332746 17.956847 12.975333 18.419096 12.263672 18.294922 C 10.175513 18.202742 8.1699893 17.352252 6.4492188 16.201172 C 5.1159826 15.444544 4.591562 17.158587 5.1386719 18.085938 C 5.9950498 20.801966 8.3876486 22.931309 11.179688 23.488281 C 14.271397 24.164741 17.908265 23.132511 19.705078 20.408203 C 21.228499 18.131612 20.877163 14.903376 19.046875 12.904297 C 18.160946 11.781608 16.815923 11.120603 15.972656 9.9667969 C 15.928849 9.8252673 15.921555 9.6651959 15.923828 9.5 L 21.5 9.5 A 1.0001 1.0001 0 0 0 22.460938 8.7753906 L 23.460938 5.2753906 A 1.0001 1.0001 0 0 0 22.5 4 L 19.886719 4 C 19.417271 2.0180466 17.709173 0.5 15.589844 0.5 L 8.3066406 0.5 z M 10.859375 2.5 L 11.853516 2.5 C 11.724671 2.6915085 11.610406 2.8949186 11.511719 3.1054688 L 10.859375 2.5 z M 15.589844 2.5 C 16.9824 2.5 18.089844 3.6074435 18.089844 5 A 1.0001 1.0001 0 0 0 19.089844 6 L 21.173828 6 L 20.746094 7.5 L 15.589844 7.5 C 14.197287 7.5 13.089844 6.3925565 13.089844 5 C 13.089844 3.6074435 14.197287 2.5 15.589844 2.5 z M 4.21875 6.4609375 L 8.9882812 9.0273438 C 8.9843571 9.0412678 8.9783791 9.0543643 8.9746094 9.0683594 C 8.7228621 9.8106909 8.6754702 10.60037 8.8046875 11.361328 L 6.9238281 12.234375 L 6.4882812 9.9882812 A 1.0001 1.0001 0 0 0 5.09375 9.2675781 L 3.0957031 10.175781 L 4.21875 6.4609375 z M 12.271484 8.0292969 C 12.726841 8.5272759 13.29238 8.922764 13.927734 9.1777344 C 13.846643 9.7961239 13.998305 10.5182 14.273438 10.986328 C 15.310258 12.78158 17.630741 13.489723 18.384766 15.498047 C 18.986086 17.082849 18.646497 19.052798 17.310547 20.166016 C 15.14732 22.035661 11.693061 22.209406 9.3339844 20.601562 C 8.8083788 20.236815 8.3481327 19.781392 7.9726562 19.263672 C 9.7967329 20.010983 11.844117 20.62865 13.810547 20.103516 C 15.383967 19.723176 16.315542 17.713195 15.431641 16.314453 C 14.225563 14.458513 11.843149 13.633109 10.912109 11.560547 C 10.45043 10.417462 10.885093 9.0114816 11.871094 8.2851562 C 11.988812 8.2026729 12.126872 8.1171341 12.271484 8.0292969 z " />
</svg>
