<svg viewBox="0 0 24 24" fill="currentColor">
  <path
     d="M 8.9238281,3.0917969 C 7.3267905,3.3272857 6.5666834,5.1438109 6.7649531,6.5995241 6.8694259,8.112561 7.998792,9.8011219 9.6635344,9.7319375 11.221809,9.6288497 12.095634,7.9348784 11.997763,6.5149269 11.980084,4.9942902 11.024412,3.2544183 9.3822705,3.0803796 9.2296538,3.0674031 9.0756114,3.0712114 8.9238281,3.0917969 Z m 6.1523439,0 c -1.601804,-0.1963368 -2.816386,1.3536044 -3.011776,2.8092056 -0.301142,1.4868172 0.341233,3.4133266 1.963952,3.7892308 1.530012,0.3153077 2.821368,-1.0873421 3.10364,-2.482161 C 17.51859,5.7371712 17.059388,3.8052417 15.521267,3.2025335 15.377535,3.1495325 15.227992,3.1122973 15.076172,3.0917969 Z M 5.3671875,6.7929687 C 4.0648434,6.4214889 2.7825642,7.5059792 2.5926888,8.7738668 2.2280532,10.601481 3.2698459,12.85823 5.2015879,13.261078 6.5829745,13.553669 7.7926974,12.286677 7.8800548,10.970861 8.0761139,9.2669177 7.1234099,7.2498139 5.3671875,6.7929687 Z m 13.2656245,0 c -2.023682,0.5589565 -3.028433,3.1128778 -2.30195,5.0004503 0.409416,1.196135 1.87171,1.870899 3.02501,1.301094 1.906437,-0.881393 2.746814,-3.5865511 1.615661,-5.3716594 -0.489908,-0.765013 -1.454526,-1.1653577 -2.338721,-0.9298849 z m -6.628906,3.8437503 c -1.419152,-0.02605 -2.6978268,0.904811 -3.3479072,2.127139 -0.8324479,1.206601 -2.4519956,1.736663 -2.9227531,3.210008 -0.7912451,1.941473 0.4580285,4.375589 2.510552,4.834375 1.1618662,0.308752 2.3529763,-0.09423 3.3955333,-0.594809 0.965732,-0.229812 1.767169,0.67056 2.737118,0.671362 2.012736,0.334375 4.045993,-1.338135 4.12087,-3.375551 0.11347,-1.438531 -0.756035,-2.791197 -1.943677,-3.541523 -0.88121,-0.629136 -1.364117,-1.620255 -2.08622,-2.392939 -0.658832,-0.618074 -1.566089,-0.937303 -2.463516,-0.938062 z"
   />
</svg>
